<svg width="91" height="19" viewBox="0 0 91 19" fill="none" xmlns="http://www.w3.org/2000/svg">
<g clip-path="url(#clip0_393_1024)">
<path d="M14.7822 17.8236C14.664 17.8241 14.5488 17.7873 14.4528 17.7184L9.94117 14.4476L5.42958 17.7184C5.33319 17.7883 5.21707 17.8258 5.098 17.8253C4.97893 17.8249 4.86308 17.7866 4.7672 17.716C4.67133 17.6454 4.60039 17.5461 4.56465 17.4325C4.5289 17.319 4.53021 17.197 4.56837 17.0842L6.32797 11.8724L1.76761 8.74503C1.66883 8.67736 1.59428 8.57988 1.55484 8.46683C1.51541 8.35378 1.51316 8.23108 1.54843 8.11665C1.5837 8.00223 1.65463 7.90209 1.75087 7.83085C1.8471 7.75961 1.9636 7.72102 2.08333 7.7207H7.7094L9.40726 2.49559C9.44384 2.38278 9.5152 2.28445 9.61112 2.21472C9.70704 2.14498 9.82258 2.10742 9.94117 2.10742C10.0598 2.10742 10.1753 2.14498 10.2712 2.21472C10.3671 2.28445 10.4385 2.38278 10.4751 2.49559L12.1729 7.72246H17.799C17.9189 7.7224 18.0357 7.76073 18.1322 7.83183C18.2287 7.90293 18.2999 8.00306 18.3354 8.11757C18.3709 8.23208 18.3688 8.35495 18.3294 8.46817C18.29 8.5814 18.2154 8.67903 18.1165 8.74678L13.5544 11.8724L15.3129 17.0828C15.3414 17.1671 15.3494 17.257 15.3363 17.3451C15.3232 17.4332 15.2893 17.5169 15.2374 17.5892C15.1856 17.6616 15.1173 17.7206 15.0381 17.7614C14.9589 17.8021 14.8712 17.8235 14.7822 17.8236Z" fill="#FCDA61"/>
</g>
<g clip-path="url(#clip1_393_1024)">
<path d="M32.7429 17.8236C32.6248 17.8241 32.5095 17.7873 32.4136 17.7184L27.902 14.4476L23.3904 17.7184C23.294 17.7883 23.1779 17.8258 23.0588 17.8253C22.9397 17.8249 22.8239 17.7866 22.728 17.716C22.6321 17.6454 22.5612 17.5461 22.5254 17.4325C22.4897 17.319 22.491 17.197 22.5292 17.0842L24.2888 11.8724L19.7284 8.74503C19.6296 8.67736 19.5551 8.57988 19.5156 8.46683C19.4762 8.35378 19.4739 8.23108 19.5092 8.11665C19.5445 8.00223 19.6154 7.90209 19.7116 7.83085C19.8079 7.75961 19.9244 7.72102 20.0441 7.7207H25.6702L27.368 2.49559C27.4046 2.38278 27.476 2.28445 27.5719 2.21472C27.6678 2.14498 27.7834 2.10742 27.902 2.10742C28.0205 2.10742 28.1361 2.14498 28.232 2.21472C28.3279 2.28445 28.3993 2.38278 28.4359 2.49559L30.1337 7.72246H35.7598C35.8797 7.7224 35.9964 7.76073 36.093 7.83183C36.1895 7.90293 36.2607 8.00306 36.2962 8.11757C36.3317 8.23208 36.3296 8.35495 36.2902 8.46817C36.2508 8.5814 36.1762 8.67903 36.0773 8.74678L31.5152 11.8724L33.2737 17.0828C33.3022 17.1671 33.3102 17.257 33.2971 17.3451C33.284 17.4332 33.2501 17.5169 33.1982 17.5892C33.1464 17.6616 33.078 17.7206 32.9989 17.7614C32.9197 17.8021 32.832 17.8235 32.7429 17.8236Z" fill="#FCDA61"/>
</g>
<g clip-path="url(#clip2_393_1024)">
<path d="M50.7037 17.8236C50.5856 17.8241 50.4703 17.7873 50.3743 17.7184L45.8627 14.4476L41.3511 17.7184C41.2548 17.7883 41.1386 17.8258 41.0196 17.8253C40.9005 17.8249 40.7846 17.7866 40.6888 17.716C40.5929 17.6454 40.522 17.5461 40.4862 17.4325C40.4505 17.319 40.4518 17.197 40.4899 17.0842L42.2495 11.8724L37.6892 8.74503C37.5904 8.67736 37.5158 8.57988 37.4764 8.46683C37.437 8.35378 37.4347 8.23108 37.47 8.11665C37.5053 8.00223 37.5762 7.90209 37.6724 7.83085C37.7687 7.75961 37.8852 7.72102 38.0049 7.7207H43.631L45.3288 2.49559C45.3654 2.38278 45.4368 2.28445 45.5327 2.21472C45.6286 2.14498 45.7442 2.10742 45.8627 2.10742C45.9813 2.10742 46.0969 2.14498 46.1928 2.21472C46.2887 2.28445 46.3601 2.38278 46.3967 2.49559L48.0945 7.72246H53.7206C53.8405 7.7224 53.9572 7.76073 54.0537 7.83183C54.1503 7.90293 54.2215 8.00306 54.257 8.11757C54.2925 8.23208 54.2904 8.35495 54.251 8.46817C54.2116 8.5814 54.137 8.67903 54.0381 8.74678L49.4759 11.8724L51.2345 17.0828C51.263 17.1671 51.271 17.257 51.2579 17.3451C51.2447 17.4332 51.2109 17.5169 51.159 17.5892C51.1072 17.6616 51.0388 17.7206 50.9597 17.7614C50.8805 17.8021 50.7928 17.8235 50.7037 17.8236Z" fill="#FCDA61"/>
</g>
<g clip-path="url(#clip3_393_1024)">
<path d="M68.6645 17.8236C68.5464 17.8241 68.4311 17.7873 68.3351 17.7184L63.8235 14.4476L59.3119 17.7184C59.2155 17.7883 59.0994 17.8258 58.9804 17.8253C58.8613 17.8249 58.7454 17.7866 58.6496 17.716C58.5537 17.6454 58.4827 17.5461 58.447 17.4325C58.4113 17.319 58.4126 17.197 58.4507 17.0842L60.2103 11.8724L55.65 8.74503C55.5512 8.67736 55.4766 8.57988 55.4372 8.46683C55.3978 8.35378 55.3955 8.23108 55.4308 8.11665C55.4661 8.00223 55.537 7.90209 55.6332 7.83085C55.7295 7.75961 55.846 7.72102 55.9657 7.7207H61.5918L63.2896 2.49559C63.3262 2.38278 63.3976 2.28445 63.4935 2.21472C63.5894 2.14498 63.7049 2.10742 63.8235 2.10742C63.9421 2.10742 64.0577 2.14498 64.1536 2.21472C64.2495 2.28445 64.3209 2.38278 64.3574 2.49559L66.0553 7.72246H71.6814C71.8013 7.7224 71.918 7.76073 72.0145 7.83183C72.1111 7.90293 72.1823 8.00306 72.2178 8.11757C72.2533 8.23208 72.2511 8.35495 72.2118 8.46817C72.1724 8.5814 72.0977 8.67903 71.9988 8.74678L67.4367 11.8724L69.1953 17.0828C69.2238 17.1671 69.2318 17.257 69.2187 17.3451C69.2055 17.4332 69.1716 17.5169 69.1198 17.5892C69.0679 17.6616 68.9996 17.7206 68.9204 17.7614C68.8413 17.8021 68.7536 17.8235 68.6645 17.8236Z" fill="#FCDA61"/>
</g>
<g clip-path="url(#clip4_393_1024)">
<rect width="17.9608" height="17.9608" transform="translate(72.8039 0.985352)" fill="white"/>
<path d="M89.6422 8.28169H83.6085L81.7843 2.66895L79.9602 8.28169H73.9265L78.8376 11.6493L76.9433 17.2621L81.7843 13.7541L86.6253 17.2621L84.731 11.6493L89.6422 8.28169Z" stroke="#FCDA61" stroke-width="1.12255" stroke-linejoin="round"/>
</g>
<defs>
<clipPath id="clip0_393_1024">
<rect width="17.9608" height="17.9608" fill="white" transform="translate(0.960785 0.985352)"/>
</clipPath>
<clipPath id="clip1_393_1024">
<rect width="17.9608" height="17.9608" fill="white" transform="translate(18.9216 0.985352)"/>
</clipPath>
<clipPath id="clip2_393_1024">
<rect width="17.9608" height="17.9608" fill="white" transform="translate(36.8824 0.985352)"/>
</clipPath>
<clipPath id="clip3_393_1024">
<rect width="17.9608" height="17.9608" fill="white" transform="translate(54.8431 0.985352)"/>
</clipPath>
<clipPath id="clip4_393_1024">
<rect width="17.9608" height="17.9608" fill="white" transform="translate(72.8039 0.985352)"/>
</clipPath>
</defs>
</svg>
