<svg width="41" height="40" viewBox="0 0 41 40" fill="none" xmlns="http://www.w3.org/2000/svg">
<path fill-rule="evenodd" clip-rule="evenodd" d="M23.1885 24.5675C21.6409 26.0513 19.6785 26.7678 17.7045 26.5696C15.7304 26.3715 13.8945 25.2738 12.5738 23.502C11.2531 21.7302 10.5479 19.4189 10.603 17.0427C10.6581 14.6664 11.4693 12.4057 12.8701 10.7248C14.2708 9.0439 16.1548 8.07042 18.135 8.0043C20.1152 7.93819 22.0413 8.78444 23.5178 10.3693C24.9942 11.9541 25.909 14.1572 26.0741 16.5261C26.2392 18.8949 25.6422 21.2498 24.4057 23.1069L30.3259 30.2099C30.4105 30.3045 30.4784 30.4186 30.5255 30.5453C30.5725 30.6721 30.5978 30.8089 30.5999 30.9477C30.6019 31.0864 30.5806 31.2243 30.5373 31.3529C30.494 31.4816 30.4296 31.5985 30.3478 31.6966C30.266 31.7948 30.1686 31.8721 30.0614 31.9241C29.9541 31.9761 29.8393 32.0016 29.7236 31.9992C29.608 31.9967 29.494 31.9663 29.3883 31.9099C29.2827 31.8534 29.1876 31.7719 29.1088 31.6704L23.1885 24.5675ZM14.0877 22.4152C13.2449 21.4038 12.671 20.1153 12.4383 18.7126C12.2056 17.3098 12.3247 15.8558 12.7805 14.5342C13.2362 13.2127 14.0082 12.0829 14.9989 11.2877C15.9896 10.4925 17.1545 10.0676 18.3464 10.0666C19.5383 10.0656 20.7037 10.4887 21.6953 11.2823C22.6869 12.0759 23.4602 13.2044 23.9174 14.5252C24.3747 15.8461 24.4954 17.2999 24.2643 18.703C24.0332 20.1062 23.4606 21.3956 22.619 22.4084L22.6133 22.4152L22.6075 22.4208C21.4766 23.7747 19.9441 24.5346 18.3467 24.5336C16.7492 24.5325 15.2174 23.7706 14.0877 22.4152Z" fill="#656464"/>
</svg>
