<svg width="23" height="23" viewBox="0 0 23 23" fill="none" xmlns="http://www.w3.org/2000/svg">
<path d="M20.4118 0.0297852H2.45097C1.21617 0.0297852 0.205872 1.04008 0.205872 2.27488V15.7455C0.205872 16.9803 1.21617 17.9906 2.45097 17.9906H6.94117V21.3582C6.94117 22.0317 7.39019 22.4808 8.06371 22.4808H8.62499C8.8495 22.4808 9.18626 22.3685 9.41077 22.144L13.5642 17.9906H20.4118C21.6466 17.9906 22.6569 16.9803 22.6569 15.7455V2.27488C22.6569 1.04008 21.6466 0.0297852 20.4118 0.0297852ZM10.3088 12.3778H5.81862V7.66312L7.27793 4.51998H9.52303L7.95146 7.88763H10.3088V12.3778ZM17.0441 12.3778H12.5539V7.66312L14.0132 4.51998H16.2583L14.6868 7.88763H17.0441V12.3778Z" fill="black"/>
</svg>
